<svg width="33" height="32" viewBox="0 0 33 32" fill="none" xmlns="http://www.w3.org/2000/svg">
<path fill-rule="evenodd" clip-rule="evenodd" d="M16.0642 20.1858C16.0642 20.1858 8.87046 12.5615 12.5215 10.0688C12.7757 9.86429 13.0683 9.71223 13.3823 9.62152C13.6963 9.53081 14.0254 9.50326 14.3502 9.54051C14.675 9.57776 14.9891 9.67906 15.2741 9.83846C15.5591 9.99786 15.8093 10.2122 16.01 10.4689C16.2107 10.2144 16.46 10.002 16.7437 9.84401C17.0273 9.68599 17.3397 9.58546 17.6627 9.54826C17.9856 9.51106 18.3128 9.53791 18.6253 9.62726C18.9378 9.71661 19.2293 9.86669 19.4831 10.0688C23.1883 12.5615 16.0642 20.1858 16.0642 20.1858ZM16.0023 11.8845C15.7728 11.6013 15.5135 11.3434 15.2288 11.1151C14.9412 10.8646 14.5752 10.7208 14.1931 10.7082C13.811 10.6956 13.4362 10.8149 13.1325 11.0459C12.9836 11.1383 12.8589 11.2647 12.7688 11.4145C12.6787 11.5643 12.6257 11.7334 12.6143 11.9076C12.6103 11.9819 12.6103 12.0564 12.6143 12.1307C12.6143 13.8079 14.4475 16.5391 16.0332 18.424C17.5803 16.5468 19.398 13.8079 19.398 12.1538C19.4023 12.0769 19.4023 11.9998 19.398 11.923C19.3869 11.7457 19.3334 11.5736 19.2419 11.421C19.1504 11.2685 19.0236 11.1399 18.872 11.0459C18.5997 10.7854 18.2365 10.6399 17.8587 10.6399C17.4809 10.6399 17.1178 10.7854 16.8454 11.0459C16.5251 11.2856 16.2366 11.5648 15.9868 11.8768" fill="#303236"/>
<path fill-rule="evenodd" clip-rule="evenodd" d="M4.5 3H27.7055V26.0807H4.5V3Z" stroke="#303236" stroke-width="1.25" stroke-miterlimit="10"/>
</svg>
