<svg width="88" height="170" viewBox="0 0 88 170" fill="none" xmlns="http://www.w3.org/2000/svg">
<g opacity="0.1">
<path d="M10.1367 -16.5693C9.51041 -8.40036 9.51041 4.79594 16.3929 15.1655C24.2139 27.106 38.6055 32.4476 45.8003 34.646C48.3032 35.275 50.8062 33.7035 51.1182 31.1896C52.0566 23.6479 52.9949 8.25271 45.1737 -3.68787C37.979 -14.3705 25.7783 -20.0274 17.9574 -22.2258L2.31548 -39.5079C1.37713 -40.7638 -0.499567 -39.5079 0.124545 -37.9364L10.1367 -16.5693Z" fill="#B5B9AC"/>
<path d="M108.684 -39.5067L93.0424 -22.2245C85.2215 -19.7105 73.0208 -14.3692 65.8261 -3.68658C58.0051 8.254 58.9436 23.6492 59.8816 31.1908C60.1936 33.7048 62.6966 35.2763 65.1996 34.6473C72.3943 32.7623 86.7859 27.421 94.6069 15.1668C101.489 4.48414 101.802 -8.39907 100.863 -16.568L110.875 -38.2491C111.499 -39.5072 109.622 -40.7653 108.684 -39.5072L108.684 -39.5067Z" fill="#B5B9AC"/>
<path d="M51.1182 88.0616C52.0566 80.52 52.9949 65.1248 45.1737 53.1842C37.979 42.5016 25.7783 36.8447 17.9574 34.6463L2.31548 17.3641C1.37713 16.1082 -0.499567 17.3641 0.124545 18.9356L10.1365 40.6168C9.51019 48.7857 9.5102 61.982 16.3927 72.3515C24.2136 84.2921 38.6053 89.6337 45.8 91.8321C48.303 92.4611 50.8059 90.5762 51.118 88.0622L51.1182 88.0616Z" fill="#B5B9AC"/>
<path d="M108.68 17.3635L93.0385 34.6456C85.2176 37.1596 73.0169 42.5009 65.8222 53.1835C58.0012 65.1241 58.9397 80.5193 59.8777 88.061C60.1897 90.5749 62.6927 92.1464 65.1957 91.5174C72.3904 89.6325 86.782 84.2911 94.603 72.0369C101.485 61.3543 101.798 48.471 100.859 40.3021L110.871 18.621C111.495 17.3629 109.619 16.1048 108.68 17.3629L108.68 17.3635Z" fill="#B5B9AC"/>
<path d="M51.1182 143.024C52.0566 135.482 52.9949 120.087 45.1737 108.146C37.979 97.4635 25.7783 91.8066 17.9574 89.6082L2.31548 72.326C1.37713 71.0702 -0.499567 72.3261 0.124545 73.8976L10.1365 95.5787C9.51019 103.748 9.5102 116.944 16.3927 127.313C24.2136 139.254 38.6053 144.596 45.8 146.794C48.303 147.423 50.8059 145.538 51.118 143.024L51.1182 143.024Z" fill="#B5B9AC"/>
<path d="M108.68 72.3244L93.0385 89.6066C85.2176 92.1205 73.0169 97.4619 65.8222 108.144C58.0012 120.085 58.9397 135.48 59.8777 143.022C60.1897 145.536 62.6927 147.107 65.1957 146.478C72.3904 144.593 86.782 139.252 94.603 126.998C101.485 116.315 101.798 103.432 100.859 95.2631L110.871 73.5819C111.495 72.3239 109.619 71.0658 108.68 72.3238L108.68 72.3244Z" fill="#B5B9AC"/>
<path d="M55.9117 155.347C53.2921 155.347 51.0469 157.21 51.0469 159.751V173.644C51.0469 176.016 53.1053 178.049 55.9117 178.049C58.7181 178.049 60.7765 176.185 60.7765 173.644V159.751C60.7765 157.38 58.5315 155.347 55.9117 155.347Z" fill="#B5B9AC"/>
</g>
</svg>
